<svg width="182" height="123" viewBox="0 0 182 123" fill="none" xmlns="http://www.w3.org/2000/svg">
<path d="M56.4953 54L50.0633 31.6H55.5353L59.6953 47.888L63.9513 31.6H69.1992L62.7673 54H56.4953Z" fill="#141314"/>
<path d="M78.8187 54.352C77.1334 54.352 75.6081 53.904 74.2428 53.008C72.8774 52.112 71.7894 50.8107 70.9788 49.104C70.1894 47.376 69.7947 45.2747 69.7947 42.8C69.7947 40.3253 70.1894 38.2347 70.9788 36.528C71.7894 34.8 72.8774 33.488 74.2428 32.592C75.6081 31.696 77.1334 31.248 78.8187 31.248C80.5041 31.248 82.0294 31.696 83.3948 32.592C84.7601 33.488 85.8374 34.8 86.6268 36.528C87.4374 38.2347 87.8428 40.3253 87.8428 42.8C87.8428 45.2747 87.4374 47.376 86.6268 49.104C85.8374 50.8107 84.7601 52.112 83.3948 53.008C82.0294 53.904 80.5041 54.352 78.8187 54.352ZM78.8187 49.456C79.4801 49.456 80.0668 49.2213 80.5788 48.752C81.1121 48.2827 81.5281 47.5573 81.8268 46.576C82.1468 45.5947 82.3067 44.336 82.3067 42.8C82.3067 41.264 82.1468 40.0053 81.8268 39.024C81.5281 38.0427 81.1121 37.3173 80.5788 36.848C80.0668 36.3787 79.4801 36.144 78.8187 36.144C78.1574 36.144 77.5601 36.3787 77.0267 36.848C76.5147 37.3173 76.0987 38.0427 75.7787 39.024C75.4801 40.0053 75.3307 41.264 75.3307 42.8C75.3307 44.336 75.4801 45.5947 75.7787 46.576C76.0987 47.5573 76.5147 48.2827 77.0267 48.752C77.5601 49.2213 78.1574 49.456 78.8187 49.456Z" fill="#141314"/>
<path d="M95.2542 54V36.208H88.8542V31.6H107.158V36.208H100.758V54H95.2542Z" fill="#141314"/>
<path d="M109.418 54V31.6H117.898C119.434 31.6 120.799 31.8987 121.994 32.496C123.188 33.0933 124.116 33.9253 124.778 34.992C125.46 36.0587 125.802 37.296 125.802 38.704C125.802 40.1333 125.45 41.392 124.746 42.48C124.042 43.5467 123.092 44.368 121.898 44.944L126.634 54H120.842L116.81 45.808H114.922V54H109.418ZM114.922 41.456H117.386C118.239 41.456 118.922 41.2107 119.434 40.72C119.967 40.2293 120.234 39.5893 120.234 38.8C120.234 37.9893 119.967 37.3493 119.434 36.88C118.922 36.3893 118.239 36.144 117.386 36.144H114.922V41.456Z" fill="#141314"/>
<path d="M129.149 54V31.6H144.637V36.208H134.653V40.464H140.957V44.944H134.653V49.392H144.765V54H129.149Z" fill="#141314"/>
<path d="M61.993 86V63.6H67.497V81.392H77.609V86H61.993Z" fill="#141314"/>
<path d="M88.4125 86.352C86.7272 86.352 85.2018 85.904 83.8365 85.008C82.4712 84.112 81.3832 82.8107 80.5725 81.104C79.7832 79.376 79.3885 77.2747 79.3885 74.8C79.3885 72.3253 79.7832 70.2347 80.5725 68.528C81.3832 66.8 82.4712 65.488 83.8365 64.592C85.2018 63.696 86.7272 63.248 88.4125 63.248C90.0978 63.248 91.6232 63.696 92.9885 64.592C94.3538 65.488 95.4312 66.8 96.2205 68.528C97.0312 70.2347 97.4365 72.3253 97.4365 74.8C97.4365 77.2747 97.0312 79.376 96.2205 81.104C95.4312 82.8107 94.3538 84.112 92.9885 85.008C91.6232 85.904 90.0978 86.352 88.4125 86.352ZM88.4125 81.456C89.0738 81.456 89.6605 81.2213 90.1725 80.752C90.7058 80.2827 91.1218 79.5573 91.4205 78.576C91.7405 77.5947 91.9005 76.336 91.9005 74.8C91.9005 73.264 91.7405 72.0053 91.4205 71.024C91.1218 70.0427 90.7058 69.3173 90.1725 68.848C89.6605 68.3787 89.0738 68.144 88.4125 68.144C87.7512 68.144 87.1538 68.3787 86.6205 68.848C86.1085 69.3173 85.6925 70.0427 85.3725 71.024C85.0738 72.0053 84.9245 73.264 84.9245 74.8C84.9245 76.336 85.0738 77.5947 85.3725 78.576C85.6925 79.5573 86.1085 80.2827 86.6205 80.752C87.1538 81.2213 87.7512 81.456 88.4125 81.456Z" fill="#141314"/>
<path d="M107.856 86.352C106.171 86.352 104.645 85.904 103.28 85.008C101.915 84.112 100.827 82.8107 100.016 81.104C99.2267 79.376 98.832 77.2747 98.832 74.8C98.832 72.3253 99.2267 70.2347 100.016 68.528C100.827 66.8 101.904 65.488 103.248 64.592C104.613 63.696 106.139 63.248 107.824 63.248C109.595 63.248 111.195 63.7707 112.624 64.816C114.053 65.8613 115.12 67.3547 115.824 69.296L111.152 70.864C110.853 69.9467 110.416 69.264 109.84 68.816C109.285 68.368 108.667 68.144 107.984 68.144C107.301 68.144 106.683 68.368 106.128 68.816C105.595 69.264 105.168 69.9787 104.848 70.96C104.528 71.92 104.368 73.2 104.368 74.8C104.368 76.3787 104.528 77.6587 104.848 78.64C105.168 79.6213 105.605 80.336 106.16 80.784C106.736 81.232 107.387 81.456 108.112 81.456C108.667 81.456 109.168 81.296 109.616 80.976C110.064 80.656 110.437 80.2187 110.736 79.664C111.056 79.088 111.259 78.448 111.344 77.744H107.792V73.136H116.368V74.704C116.368 77.1573 116.016 79.2587 115.312 81.008C114.608 82.736 113.616 84.0587 112.336 84.976C111.077 85.8933 109.584 86.352 107.856 86.352Z" fill="#141314"/>
<path d="M126.787 86.352C125.102 86.352 123.577 85.904 122.212 85.008C120.846 84.112 119.758 82.8107 118.948 81.104C118.158 79.376 117.763 77.2747 117.763 74.8C117.763 72.3253 118.158 70.2347 118.948 68.528C119.758 66.8 120.846 65.488 122.212 64.592C123.577 63.696 125.102 63.248 126.787 63.248C128.473 63.248 129.998 63.696 131.363 64.592C132.729 65.488 133.806 66.8 134.596 68.528C135.406 70.2347 135.811 72.3253 135.811 74.8C135.811 77.2747 135.406 79.376 134.596 81.104C133.806 82.8107 132.729 84.112 131.363 85.008C129.998 85.904 128.473 86.352 126.787 86.352ZM126.787 81.456C127.449 81.456 128.036 81.2213 128.548 80.752C129.081 80.2827 129.497 79.5573 129.796 78.576C130.116 77.5947 130.275 76.336 130.275 74.8C130.275 73.264 130.116 72.0053 129.796 71.024C129.497 70.0427 129.081 69.3173 128.548 68.848C128.036 68.3787 127.449 68.144 126.787 68.144C126.126 68.144 125.529 68.3787 124.995 68.848C124.483 69.3173 124.067 70.0427 123.747 71.024C123.449 72.0053 123.299 73.264 123.299 74.8C123.299 76.336 123.449 77.5947 123.747 78.576C124.067 79.5573 124.483 80.2827 124.995 80.752C125.529 81.2213 126.126 81.456 126.787 81.456Z" fill="#141314"/>
</svg>
